<?xml version="1.0" encoding="UTF-8"?>
<svg enable-background="new 0 0 512 512" version="1.1" viewBox="0 0 512 512" xml:space="preserve" xmlns="http://www.w3.org/2000/svg">
<path d="m492.67 211.49-208.84-0.01c-9.222 0-16.697 7.474-16.697 16.696v66.715c0 9.22 7.475 16.696 16.696 16.696h117.61c-12.878 33.421-36.914 61.41-67.58 79.194l50.147 86.809c80.442-46.523 128-128.15 128-219.53 0-13.011-0.959-22.312-2.877-32.785-1.458-7.957-8.366-13.785-16.455-13.785z" fill="#167EE6"/>
<path d="m256 411.83c-57.554 0-107.8-31.446-134.78-77.979l-86.806 50.034c44.175 76.562 126.93 128.12 221.59 128.12 46.437 0 90.254-12.503 128-34.292v-0.119l-50.147-86.81c-22.938 13.304-49.482 21.047-77.853 21.047z" fill="#12B347"/>
<path d="m384 477.71v-0.119l-50.147-86.81c-22.938 13.303-49.48 21.047-77.853 21.047v100.17c46.437 0 90.256-12.503 128-34.292z" fill="#0F993E"/>
<path d="M100.174,256c0-28.369,7.742-54.91,21.043-77.847l-86.806-50.034C12.502,165.746,0,209.444,0,256  s12.502,90.254,34.411,127.881l86.806-50.034C107.916,310.91,100.174,284.369,100.174,256z" fill="#FFD500"/>
<path d="M256,100.174c37.531,0,72.005,13.336,98.932,35.519c6.643,5.472,16.298,5.077,22.383-1.008  l47.27-47.27c6.904-6.904,6.412-18.205-0.963-24.603C378.507,23.673,319.807,0,256,0C161.34,0,78.586,51.557,34.411,128.119  l86.806,50.034C148.202,131.62,198.446,100.174,256,100.174z" fill="#FF4B26"/>
<path d="m354.93 135.69c6.643 5.472 16.299 5.077 22.383-1.008l47.27-47.27c6.903-6.904 6.411-18.205-0.963-24.603-45.115-39.14-103.82-62.812-167.62-62.812v100.17c37.53 0 72.005 13.336 98.932 35.519z" fill="#D93F21"/>















</svg>
