<?xml version="1.0" encoding="UTF-8"?>
<svg fill="none" viewBox="0 0 20 20" xmlns="http://www.w3.org/2000/svg">
<g clip-path="url(#a)">
<path d="m19.805 10.23c0-0.67982-0.0551-1.3633-0.1727-2.032h-9.4323v3.8508h5.4014c-0.2241 1.242-0.9443 2.3406-1.9989 3.0388v2.4986h3.2225c1.8924-1.7417 2.98-4.3138 2.98-7.3562z" fill="#EC6708"/>
<path d="m10.2 20.001c2.6971 0 4.9715-0.8856 6.6287-2.4141l-3.2225-2.4987c-0.8965 0.61-2.054 0.9554-3.4025 0.9554-2.6089 0-4.8209-1.7601-5.6146-4.1264h-3.3254v2.5758c1.6976 3.3768 5.1552 5.508 8.9362 5.508z" fill="#EC6708"/>
<path d="m4.5856 11.917c-0.41888-1.242-0.41888-2.5868 0-3.8288v-2.5758h-3.3217c-1.4183 2.8256-1.4183 6.1547 0 8.9803l3.3217-2.5757z" fill="#FBBC04"/>
<path d="m10.2 3.958c1.4257-0.02205 2.8036 0.51442 3.8361 1.4992l2.8551-2.855c-1.8078-1.6976-4.2073-2.6309-6.6912-2.6015-3.781 0-7.2386 2.1312-8.9362 5.5117l3.3217 2.5758c0.79-2.37 3.0057-4.1301 5.6145-4.1301z" fill="#EC6708"/>
</g>
<defs>
<clipPath id="a">
<rect width="20" height="20" fill="#fff"/>
</clipPath>
</defs>
</svg>
